<svg width="438" height="109" fill="none" xmlns="http://www.w3.org/2000/svg">
  <path fill-rule="evenodd" clip-rule="evenodd" d="M210.708 25.5214c-6.616 0-17.705-8.0476-17.705-8.0476S181.598 13.45 174.494 13.45c-7.104 0-12.011 1.3597-16.9 4.0238-4.89 2.664-12.876 9.1357-12.876 9.1357l-5.771 6.9595-5.111 9.8319s-2.3 5.9969-2.355 15.3105c-.055 9.3137 2.355 19.4874 2.355 19.4874s1.174 8.4844 5.111 13.313c3.936 4.8285 14.816 11.7912 14.816 11.7912s6.9 3.666 12.001 4.849c5.102 1.183 8.73 0 8.73 0s16.206-1.601 18.509-4.849c2.304-3.248 10.668-6.9627 17.705-6.9627h13.158c6.201 0 9.936 5.3157 15.009 8.5637 5.073 3.248 16.095 3.248 16.095 3.248s15.973 1.183 19.314 0c3.341-1.183 12.735-6.983 12.735-6.983s7.406-7.6366 11.408-11.0612 6.275-15.1569 6.275-15.1569 1.823-12.1275 2.166-16.2395c.342-4.112 0-10.7636 0-13.8647 0-3.1011-6.558-11.2777-6.558-11.2777l-6.712-6.9595s-10.056-9.1357-12.071-9.1357c-2.015 0-12.093-4.0238-18.509-4.0238s-24.143 5.9258-24.143 5.9258-7.443 4.9911-10.462 6.1456c-3.019 1.1544-11.089 0-17.705 0zm-36.214-4.0238c9.346 0 18.509 4.0238 18.509 4.0238l8.853 4.0238 12.876 4.0238h13.681c2.442 0 10.09-5.805 13.342-6.9595 3.253-1.1544 9.996-5.1119 21.263-5.1119 11.266 0 15.357 1.3098 18.509 4.0238 3.153 2.7139 12.071 12.0714 12.071 12.0714s4.829 9.9846 4.829 14.4857v19.3142l-4.829 15.2905-12.071 9.6571-7.243 4.8287H254.97l-16.095-4.8287s-9.036-4.8285-24.143-4.8285c-15.107 0-21.729 4.8285-21.729 4.8285l-18.509 4.8287-16.9-4.8287-12.876-9.6571-7.243-15.2905V52.0785c0-3.8687 7.243-14.4857 7.243-14.4857l12.876-12.0714s7.554-4.0238 16.9-4.0238z" fill="#EB882E"/>
  <path d="M81.85 1.6c-1.2 1.1-1.6 3.6-1.6 9V18h-4.2c-5.4 0-7.1 1.1-6.6 4.1.3 2.1.9 2.4 5.4 2.7l5.2.3.4 29.2c.4 27.9.5 29.4 2.7 34.5 2.9 6.5 6.6 9.7 13.8 11.8 13.8 4 35.9-4.6 29.2-11.3-.9-.9-2.6-.5-6.9 1.7-7.3 3.7-11.8 4.5-17.9 3-5.6-1.3-9.7-5-11.1-10.1-.6-1.8-1-15.9-1-31.1V25h14.8c15.2 0 17.2-.5 17.2-4.1 0-2.6-2-2.9-17.6-2.9h-14.4v-7.4c0-7.6-1.3-10.6-4.5-10.6-.7 0-2.1.7-2.9 1.6zM16.85 22.0093c-10.4 3.8-14.6 9.2-14.6 18.9 0 11.4 5 16.1 25 23.2 17.2 6.2 22 10.2 22 18.5 0 9.7-5.4 14.7-16.9 15.6-8.9.6-16.7-1.2-23.2-5.3-5.6-3.5-8.9-3.4-8.9.4 0 6.9997 21 13.6997 36.1 11.3997 9.9-1.6 15.6-5.1997 19.2-12.1997 7.6-15.1.3-25.9-23.3-34.1-17.1-6-21-9-21.8-16.8-.4-4.4-.1-5.2 2.7-8.5 1.8-2 4.7-4.1 6.6-4.7 5.9-1.9 17.5-1.4 25.2 1.1 7.6 2.4 10.3 2.1 10.3-1 0-4.7-10.5-8.1-24.5-8-6 0-11.5.6-13.9 1.5zM318.95 17.7c-.4.3-.7 19-.7 41.3 0 34.4.2 40.9 1.5 42 2 1.6 5.4.3 6-2.3.3-1.2.6-14.1.7-28.7.3-25.4.4-26.7 2.7-31.7 5.3-11.8 16.6-16.8 29.6-13.2 5.1 1.4 11.9 8.1 13.6 13.4.8 2.7 1.4 13.6 1.8 32.9.5 26 .8 29 2.4 30 1.2.8 2.2.8 3.5 0 1.5-1 1.8-3.9 2.3-29 .4-18.6 1-29.1 1.8-31.4 2.4-6.7 6.4-11.4 12.1-14.3 4.8-2.5 6.3-2.8 12.2-2.4 9.5.6 14.8 3.9 18.5 11.4l2.8 5.8.5 29.4c.5 26.6.7 29.5 2.3 30.5 1.2.8 2.2.8 3.5 0 1.6-1 1.7-3.7 1.7-31.5 0-33.5-.3-35.7-5.9-43-5-6.6-11.1-9.3-21.9-9.7-13.4-.6-21.2 3.2-27.7 13.6l-2.7 4.3-1.8-4.1c-4-8.9-13.6-14-26-14-9.5 0-15.8 2.3-21.2 7.6l-4.3 4.3v-4.7c0-2.7-.5-5.3-1.2-6-1.3-1.3-5-1.6-6.1-.5z" fill="#fff"/>
</svg>
